<?xml version="1.0" encoding="UTF-8" standalone="no"?>
<svg
   width="46"
   height="46"
   viewBox="0 0 46 46"
   fill="none"
   version="1.1"
   id="svg4"
   sodipodi:docname="easy.svg"
   inkscape:version="1.3.2 (091e20e, 2023-11-25, custom)"
   xmlns:inkscape="http://www.inkscape.org/namespaces/inkscape"
   xmlns:sodipodi="http://sodipodi.sourceforge.net/DTD/sodipodi-0.dtd"
   xmlns="http://www.w3.org/2000/svg"
   xmlns:svg="http://www.w3.org/2000/svg">
  <defs
     id="defs4" />
  <sodipodi:namedview
     id="namedview4"
     pagecolor="#ffffff"
     bordercolor="#000000"
     borderopacity="0.25"
     inkscape:showpageshadow="2"
     inkscape:pageopacity="0.0"
     inkscape:pagecheckerboard="0"
     inkscape:deskcolor="#d1d1d1"
     showgrid="false"
     inkscape:zoom="5.3763118"
     inkscape:cx="44.361267"
     inkscape:cy="47.709287"
     inkscape:window-width="1920"
     inkscape:window-height="974"
     inkscape:window-x="-11"
     inkscape:window-y="-11"
     inkscape:window-maximized="1"
     inkscape:current-layer="svg4" />
  <path
     d="m 30.694864,45.72388 h -15.97765 c -2.324007,0 -4.214481,-1.688212 -4.214481,-3.763574 V 4.7005858 c 0,-2.0753617 1.890474,-3.76358042 4.214481,-3.76358042 h 15.97765 c 2.324006,0 4.214485,1.68821872 4.214485,3.76358042 V 41.960306 c 0,2.075362 -1.890479,3.763574 -4.214485,3.763574 z"
     fill="#dadbdc"
     stroke-width="0"
     id="path1" />
  <path
     d="M 30.706446,44.70504 H 14.705633 c -1.720044,0 -3.119911,-1.25009 -3.119911,-2.786107 V 4.6688127 c 0,-1.5360177 1.399867,-2.7861075 3.119911,-2.7861075 h 16.000813 c 1.720047,0 3.119911,1.2500898 3.119911,2.7861075 V 41.918933 c 0,1.536017 -1.399864,2.786107 -3.119911,2.786107 z"
     fill="#ffffff"
     stroke-width="0"
     id="path2" />
  <path
     d="m 24.968825,4.3622011 h -4.524738 c -0.597347,0 -1.082994,-0.4336919 -1.082994,-0.967122 0,-0.5334301 0.485647,-0.967122 1.082994,-0.967122 h 4.524738 c 0.597341,0 1.082988,0.4336919 1.082988,0.967122 0,0.5334301 -0.485647,0.967122 -1.082988,0.967122 z"
     fill="#dadbdc"
     stroke-width="0"
     id="path3" />
  <path
     d="m 29.586224,15.73716 h -13.23997 c -0.262265,0 -0.475723,-0.242332 -0.475723,-0.539337 0,-0.297012 0.213458,-0.539345 0.475723,-0.539345 h 13.23997 c 0.262268,0 0.475722,0.242333 0.475722,0.539345 0,0.297005 -0.213454,0.539337 -0.475722,0.539337 z"
     fill="#dadbdc"
     stroke-width="0"
     id="path4" />
  <path
     d="m 29.586224,18.127263 h -13.23997 c -0.262265,0 -0.475723,-0.242333 -0.475723,-0.539344 0,-0.297005 0.213458,-0.539338 0.475723,-0.539338 h 13.23997 c 0.262268,0 0.475722,0.242333 0.475722,0.539338 0,0.297011 -0.213454,0.539344 -0.475722,0.539344 z"
     fill="#dadbdc"
     stroke-width="0"
     id="path5" />
  <path
     d="m 25.789548,20.517366 h -9.443294 c -0.262265,0 -0.475723,-0.242333 -0.475723,-0.539344 0,-0.297005 0.213458,-0.539344 0.475723,-0.539344 h 9.443294 c 0.262265,0 0.475721,0.242339 0.475721,0.539344 0,0.297011 -0.213456,0.539344 -0.475721,0.539344 z"
     fill="#dadbdc"
     stroke-width="0"
     id="path6" />
  <ellipse
     cx="22.706036"
     cy="29.522911"
     fill="#4690d6"
     stroke-width="0"
     id="circle6"
     rx="5.6515794"
     ry="5.0469184" />
  <path
     d="m 21.20276,29.627825 c 0.292049,0.510531 0.584104,1.021795 0.876152,1.532326 0.08356,0.147025 0.329286,0.100476 0.378099,-0.04431 0.383057,-1.140751 1.094575,-2.180275 2.053463,-3.007024 0.191947,-0.165494 -0.100933,-0.426301 -0.292881,-0.261545 -1.009357,0.870337 -1.756449,1.970448 -2.160192,3.170302 l 0.378099,-0.04431 c -0.292055,-0.510531 -0.584104,-1.0218 -0.876158,-1.532325 -0.120793,-0.212043 -0.478206,-0.02512 -0.357413,0.186183 h 5.58e-4 z"
     fill="#ffffff"
     stroke-width="0"
     id="path7" />
</svg>
