<?xml version="1.0" encoding="UTF-8" standalone="no"?>
<svg
   width="46"
   height="46"
   viewBox="0 0 46 46"
   fill="none"
   version="1.1"
   id="svg4"
   sodipodi:docname="gestion.svg"
   inkscape:version="1.3.2 (091e20e, 2023-11-25, custom)"
   xmlns:inkscape="http://www.inkscape.org/namespaces/inkscape"
   xmlns:sodipodi="http://sodipodi.sourceforge.net/DTD/sodipodi-0.dtd"
   xmlns="http://www.w3.org/2000/svg"
   xmlns:svg="http://www.w3.org/2000/svg">
  <defs
     id="defs4" />
  <sodipodi:namedview
     id="namedview4"
     pagecolor="#ffffff"
     bordercolor="#000000"
     borderopacity="0.25"
     inkscape:showpageshadow="2"
     inkscape:pageopacity="0.0"
     inkscape:pagecheckerboard="0"
     inkscape:deskcolor="#d1d1d1"
     showgrid="false"
     inkscape:zoom="5.9258435"
     inkscape:cx="45.478757"
     inkscape:cy="40.247435"
     inkscape:window-width="1920"
     inkscape:window-height="974"
     inkscape:window-x="-11"
     inkscape:window-y="-11"
     inkscape:window-maximized="1"
     inkscape:current-layer="svg4" />
  <path
     d="m 21.963631,12.978964 c 7.571019,0 13.708549,5.936204 13.708549,13.258871 0,7.322676 -6.13753,13.25888 -13.708549,13.25888 -7.57102,0 -18.0490254,-7.260188 -13.7085498,-13.25888 C 12.595558,20.239143 14.392611,12.978964 21.963631,12.978964 Z"
     fill="#f2f2f2"
     id="path11-9"
     style="stroke-width:0.109608" />
  <path
     d="m 40.311522,13.609708 c -0.122935,0 -0.222903,0.0967 -0.222903,0.215594 v 6.898924 c 0,0.118906 0.09997,0.215595 0.222903,0.215595 0.122934,0 0.222901,-0.09669 0.222901,-0.215595 v -6.898924 c 0,-0.118899 -0.09996,-0.215594 -0.222901,-0.215594 z"
     fill="#3f3d56"
     id="path12"
     style="stroke-width:0.109608" />
  <path
     d="m 2.8637848,8.4355168 c -0.1229346,0 -0.2229018,0.096689 -0.2229018,0.2155884 v 1.7247318 c 0,0.1189 0.099968,0.215589 0.2229018,0.215589 0.1229346,0 0.2229018,-0.09669 0.2229018,-0.215589 V 8.6511052 c 0,-0.1188999 -0.099968,-0.2155948 -0.2229018,-0.2155884 z"
     fill="#3f3d56"
     id="path13"
     style="stroke-width:0.109608" />
  <path
     d="m 2.8637848,13.609708 c -0.1229346,0 -0.2229018,0.0967 -0.2229018,0.215594 v 3.341667 c 0,0.118901 0.099968,0.215589 0.2229018,0.215589 0.1229346,0 0.2229018,-0.09669 0.2229018,-0.215589 v -3.341667 c 0,-0.118899 -0.099968,-0.215594 -0.2229018,-0.215594 z"
     fill="#3f3d56"
     id="path14"
     style="stroke-width:0.109608" />
  <path
     d="m 2.8637848,18.352723 c -0.1229346,0 -0.2229018,0.09669 -0.2229018,0.215588 v 3.341667 c 0,0.118905 0.099968,0.215594 0.2229018,0.215594 0.1229346,0 0.2229018,-0.09669 0.2229018,-0.215594 v -3.341667 c 0,-0.1189 -0.099968,-0.215588 -0.2229018,-0.215588 z"
     fill="#3f3d56"
     id="path15"
     style="stroke-width:0.109608" />
  <path
     d="m 22.855245,1.6443844 c -0.122935,0 -0.222909,0.096689 -0.222909,0.2155946 v 3.3416676 c 0,0.1188998 0.09997,0.2155884 0.222909,0.2155884 0.122934,0 0.222902,-0.096689 0.222902,-0.2155884 V 1.859979 c 0,-0.1189061 -0.09997,-0.2155946 -0.222902,-0.2155946 z"
     fill="#3f3d56"
     id="path16"
     style="stroke-width:0.109608" />
  <path
     d="M 15.96984,25.344104 H 8.2550812 V 25.128509 H 15.96984 c 0.67018,0 1.21541,-0.527397 1.21541,-1.175646 v -5.045134 h 0.222901 v 5.045134 c 0,0.767099 -0.645197,1.391241 -1.438311,1.391241 z"
     fill="#4690d6"
     id="path19"
     style="stroke-width:0.109608" />
  <rect
     x="13.143769"
     y="36.280525"
     width="17.546499"
     height="0.21559146"
     fill="#4690d6"
     id="rect19-1"
     style="stroke-width:0.109608" />
  <g
     id="g25"
     transform="matrix(0.1114516,0,0,0.10779573,0.10181239,-3.6356307)">
    <path
       d="m 374.34299,255.466 h -84.0918 c -4.53809,0 -8.22998,-3.69189 -8.22998,-8.22998 V 164.1701 c 0,-4.53809 3.69189,-8.22998 8.22998,-8.22998 h 84.0918 c 4.53809,0 8.22998,3.69189 8.22998,8.22998 v 83.06592 c 0,4.53809 -3.69189,8.22998 -8.22998,8.22998 z"
       fill="#e6e6e6"
       id="path20-4" />
    <path
       d="m 305.91171,158.39219 c -11.84012,0 -21.43842,9.5983 -21.43842,21.43842 v 65.64299 c 0,4.16435 3.37589,7.54022 7.54022,7.54022 h 51.41989 c 20.26184,0 36.68732,-16.42548 36.68732,-36.68733 V 165.9324 c 0,-4.16435 -3.37589,-7.54022 -7.54022,-7.54022 h -66.66879 v 2e-5 z"
       fill="#ffffff"
       id="path21-6" />
    <g
       id="g24">
      <path
         d="m 354.81924,182.53161 h -45.22061 c -0.86273,0 -1.5647,-0.702 -1.5647,-1.56471 0,-0.86271 0.702,-1.56439 1.5647,-1.56439 h 45.22061 c 0.86273,0 1.56439,0.70166 1.56439,1.56439 0,0.86273 -0.70166,1.56471 -1.56439,1.56471 z"
         fill="#e6e6e6"
         id="path22-8" />
      <path
         d="m 354.81924,215.89521 h -45.22061 c -0.86273,0 -1.5647,-0.702 -1.5647,-1.56471 0,-0.86271 0.702,-1.56439 1.5647,-1.56439 h 45.22061 c 0.86273,0 1.56439,0.70166 1.56439,1.56439 0,0.86273 -0.70166,1.56471 -1.56439,1.56471 z"
         fill="#e6e6e6"
         id="path23-7" />
      <path
         d="m 373.1824,199.22434 h -81.9469 c -0.86273,0 -1.5647,-0.702 -1.5647,-1.56471 0,-0.86271 0.702,-1.56439 1.5647,-1.56439 h 81.9469 c 0.86273,0 1.56439,0.70166 1.56439,1.56439 0,0.86273 -0.70166,1.56471 -1.56439,1.56471 z"
         fill="#e6e6e6"
         id="path24" />
    </g>
    <path
       d="m 374.01913,229.46084 h -29.60361 c -0.86273,0 -1.5647,-0.702 -1.5647,-1.56471 0,-0.86271 0.702,-1.56439 1.5647,-1.56439 h 29.60361 c 0.86273,0 1.56439,0.70166 1.56439,1.56439 0,0.86273 -0.70166,1.56471 -1.56439,1.56471 z"
       fill="#e6e6e6"
       id="path25" />
  </g>
  <g
     id="g31"
     transform="matrix(0.1114516,0,0,0.10779573,0.10181239,-3.6356307)">
    <path
       d="m 197.71127,420.97035 h -66.77454 c -3.60355,0 -6.53516,-2.93161 -6.53516,-6.53516 v -65.95993 c 0,-3.60355 2.93161,-6.53516 6.53516,-6.53516 h 66.77457 c 3.60355,0 6.53516,2.93161 6.53516,6.53516 v 65.95993 c 0,3.60355 -2.93161,6.53516 -6.53516,6.53516 h -2e-5 z"
       fill="#e6e6e6"
       id="path26" />
    <path
       d="m 143.37224,343.88719 c -9.40184,0 -17.02355,7.6217 -17.02355,17.02356 v 52.12497 c 0,3.30679 2.68067,5.98746 5.98745,5.98746 H 173.167 c 16.08928,0 29.13222,-13.04294 29.13222,-29.1322 v -40.0163 c 0,-3.30679 -2.68066,-5.98746 -5.98746,-5.98746 h -52.93953 l 2e-5,-3e-5 z"
       fill="#ffffff"
       id="path27" />
    <g
       id="g30">
      <path
         d="m 182.20811,363.05549 h -35.9082 c -0.68506,0 -1.24249,-0.55743 -1.24249,-1.24249 0,-0.68506 0.55742,-1.24222 1.24249,-1.24222 h 35.9082 c 0.68506,0 1.24223,0.55716 1.24223,1.24222 0,0.68506 -0.55717,1.24249 -1.24223,1.24249 z"
         fill="#e6e6e6"
         id="path28" />
      <path
         d="m 182.20811,389.54847 h -35.9082 c -0.68506,0 -1.24249,-0.55743 -1.24249,-1.24249 0,-0.68506 0.55742,-1.24222 1.24249,-1.24222 h 35.9082 c 0.68506,0 1.24223,0.55716 1.24223,1.24222 0,0.68506 -0.55717,1.24249 -1.24223,1.24249 z"
         fill="#e6e6e6"
         id="path29" />
      <path
         d="m 196.78969,376.31068 h -65.07135 c -0.68506,0 -1.24249,-0.55743 -1.24249,-1.24249 0,-0.68506 0.55742,-1.24222 1.24249,-1.24222 h 65.07135 c 0.68506,0 1.24223,0.55716 1.24223,1.24222 0,0.68506 -0.55717,1.24249 -1.24223,1.24249 z"
         fill="#e6e6e6"
         id="path30" />
    </g>
    <path
       d="m 197.4541,400.32048 h -23.50725 c -0.68506,0 -1.24249,-0.55743 -1.24249,-1.24249 0,-0.68506 0.55742,-1.24222 1.24249,-1.24222 h 23.50725 c 0.68506,0 1.24223,0.55716 1.24223,1.24222 0,0.68506 -0.55717,1.24249 -1.24223,1.24249 z"
       fill="#e6e6e6"
       id="path31" />
  </g>
  <g
     id="g37"
     transform="matrix(0.1114516,0,0,0.10779573,0.10181239,-3.6356307)">
    <path
       d="m 151.04003,208.62567 h -49.3827 c -2.66499,0 -4.83304,-2.16805 -4.83304,-4.83303 v -48.78026 c 0,-2.66498 2.16805,-4.83303 4.83303,-4.83303 h 49.38271 c 2.66498,0 4.83303,2.16805 4.83303,4.83303 v 48.78026 c 0,2.66498 -2.16805,4.83303 -4.83303,4.83303 h -1e-5 z"
       fill="#e6e6e6"
       id="path32" />
    <path
       d="m 110.85394,151.6193 c -6.95307,0 -12.58966,5.63658 -12.58966,12.58967 v 38.5487 c 0,2.44552 1.98247,4.42799 4.42798,4.42799 h 30.19621 c 11.89873,0 21.54455,-9.64582 21.54455,-21.54454 v -29.5938 c 0,-2.44552 -1.98247,-4.42799 -4.42799,-4.42799 h -39.1511 v -2e-5 z"
       fill="#ffffff"
       id="path33" />
    <g
       id="g36">
      <path
         d="m 139.57477,165.7951 h -26.55569 c -0.50663,0 -0.91888,-0.41225 -0.91888,-0.91888 0,-0.50663 0.41224,-0.91867 0.91888,-0.91867 h 26.55569 c 0.50663,0 0.91869,0.41204 0.91869,0.91867 0,0.50663 -0.41206,0.91888 -0.91869,0.91888 z"
         fill="#e6e6e6"
         id="path34" />
      <path
         d="m 139.57477,185.38782 h -26.55569 c -0.50663,0 -0.91888,-0.41225 -0.91888,-0.91888 0,-0.50663 0.41224,-0.91867 0.91888,-0.91867 h 26.55569 c 0.50663,0 0.91869,0.41204 0.91869,0.91867 0,0.50663 -0.41206,0.91888 -0.91869,0.91888 z"
         fill="#e6e6e6"
         id="path35" />
      <path
         d="m 150.35848,175.59789 h -48.12311 c -0.50663,0 -0.91888,-0.41225 -0.91888,-0.91888 0,-0.50663 0.41224,-0.91867 0.91888,-0.91867 h 48.12311 c 0.50663,0 0.91869,0.41204 0.91869,0.91867 0,0.50663 -0.41206,0.91888 -0.91869,0.91888 z"
         fill="#e6e6e6"
         id="path36" />
    </g>
    <path
       d="M 150.84984,193.35418 H 133.4652 c -0.50663,0 -0.91888,-0.41225 -0.91888,-0.91888 0,-0.50663 0.41224,-0.91867 0.91888,-0.91867 h 17.38464 c 0.50663,0 0.91869,0.41204 0.91869,0.91867 0,0.50663 -0.41206,0.91888 -0.91869,0.91888 z"
       fill="#e6e6e6"
       id="path37" />
  </g>
  <ellipse
     cx="32.997341"
     cy="24.405317"
     fill="#4690d6"
     id="circle37"
     rx="1.1145159"
     ry="1.0779573"
     style="stroke-width:0.109608" />
  <ellipse
     cx="17.282661"
     cy="18.907728"
     fill="#4690d6"
     id="circle38"
     rx="1.1145159"
     ry="1.0779573"
     style="stroke-width:0.109608" />
  <ellipse
     cx="22.632341"
     cy="33.675747"
     fill="#4690d6"
     id="circle39"
     rx="1.1145159"
     ry="1.0779573"
     style="stroke-width:0.109608" />
  <g
     id="g40"
     transform="matrix(0.1114516,0,0,0.10779573,0.10181239,-3.6356307)">
    <ellipse
       cx="223.75633"
       cy="66.652122"
       rx="12.46327"
       ry="12.20069"
       fill="#f2f2f2"
       id="ellipse39" />
    <path
       d="m 323.66919,62.47819 h -67.08496 c -2.30142,0 -4.17392,-1.87249 -4.17392,-4.17392 0,-2.30143 1.8725,-4.17392 4.17392,-4.17392 h 67.08496 c 2.30142,0 4.17392,1.87249 4.17392,4.17392 0,2.30143 -1.8725,4.17392 -4.17392,4.17392 z"
       fill="#f2f2f2"
       id="path39" />
    <path
       d="M 376.02252,76.6053 H 256.58423 c -2.30142,0 -4.17392,-1.87249 -4.17392,-4.17392 0,-2.30143 1.8725,-4.17392 4.17392,-4.17392 h 119.43829 c 2.30142,0 4.17392,1.87249 4.17392,4.17392 0,2.30143 -1.8725,4.17392 -4.17392,4.17392 z"
       fill="#f2f2f2"
       id="path40" />
  </g>
  <g
     id="g42"
     transform="matrix(0.1114516,0,0,0.10779573,0.10181239,-3.6356307)">
    <ellipse
       cx="43.359112"
       cy="122.23425"
       rx="8.0660496"
       ry="7.8961"
       fill="#f2f2f2"
       id="ellipse40" />
    <path
       d="m 108.02125,119.53295 h -43.4164 c -1.48945,0 -2.7013,-1.21185 -2.7013,-2.7013 0,-1.48945 1.21185,-2.7013 2.7013,-2.7013 h 43.4164 c 1.48945,0 2.7013,1.21185 2.7013,2.7013 0,1.48945 -1.21185,2.7013 -2.70129,2.7013 z"
       fill="#f2f2f2"
       id="path41" />
    <path
       d="m 141.90355,128.67582 h -77.2987 c -1.48945,0 -2.7013,-1.21185 -2.7013,-2.7013 0,-1.48945 1.21185,-2.7013 2.7013,-2.7013 h 77.2987 c 1.48946,0 2.70129,1.21185 2.70129,2.7013 0,1.48945 -1.21185,2.7013 -2.70129,2.7013 z"
       fill="#f2f2f2"
       id="path42" />
  </g>
  <g
     id="g44"
     transform="matrix(0.1114516,0,0,0.10779573,0.10181239,-3.6356307)">
    <ellipse
       cx="285.3591"
       cy="403.23425"
       rx="8.06604"
       ry="7.89609"
       fill="#f2f2f2"
       id="ellipse42" />
    <path
       d="m 350.02124,400.53295 h -43.41641 c -1.48944,0 -2.70129,-1.21185 -2.70129,-2.70129 0,-1.48944 1.21185,-2.70129 2.70129,-2.70129 h 43.41641 c 1.48944,0 2.70129,1.21185 2.70129,2.70129 0,1.48944 -1.21185,2.70129 -2.70129,2.70129 z"
       fill="#f2f2f2"
       id="path43" />
    <path
       d="m 383.90356,409.67581 h -77.29871 c -1.48944,0 -2.70129,-1.21185 -2.70129,-2.70129 0,-1.48944 1.21185,-2.70129 2.70129,-2.70129 h 77.29871 c 1.48944,0 2.70129,1.21185 2.70129,2.70129 0,1.48944 -1.21185,2.70129 -2.70129,2.70129 z"
       fill="#f2f2f2"
       id="path44" />
  </g>
  <rect
     x="20.876957"
     y="13.177309"
     width="0.22290321"
     height="10.240594"
     fill="#e6e6e6"
     id="rect44"
     style="stroke-width:0.109608" />
  <ellipse
     cx="20.988407"
     cy="23.417904"
     fill="#e6e6e6"
     id="circle44"
     rx="0.66871077"
     ry="0.64677548"
     style="stroke-width:0.109608" />
  <ellipse
     cx="31.130505"
     cy="30.855812"
     fill="#e6e6e6"
     id="circle45"
     rx="0.66870958"
     ry="0.64677435"
     style="stroke-width:0.109608" />
  <ellipse
     cx="13.07535"
     cy="22.016558"
     fill="#e6e6e6"
     id="circle46"
     rx="0.66870958"
     ry="0.64677435"
     style="stroke-width:0.109608" />
  <rect
     x="8.4745331"
     y="22.383612"
     width="3.6586103"
     height="0.21569744"
     transform="matrix(0.9995716,-0.02926785,0.03128483,0.99951051,0,0)"
     fill="#e6e6e6"
     id="rect46"
     style="stroke-width:0.109609" />
  <polygon
     points="277.4603,319.97039 279.4603,319.97039 279.4603,340.94012 327.21616,340.94012 327.21616,342.94012 277.4603,342.94012 "
     fill="#e6e6e6"
     id="polygon46"
     transform="matrix(0.1114516,0,0,0.10779573,0.10181239,-3.6356307)" />
  <ellipse
     cx="12.800869"
     cy="29.07881"
     fill="#e6e6e6"
     id="circle47"
     rx="0.66870958"
     ry="0.64677435"
     style="stroke-width:0.109608" />
  <polygon
     points="112.40511,303.48553 114.40511,303.48553 114.40511,324.45526 162.16098,324.45526 162.16098,326.45526 112.40511,326.45526 "
     fill="#e6e6e6"
     id="polygon47"
     transform="matrix(0.1114516,0,0,0.10779573,0.10181239,-3.6356307)" />
  <rect
     x="8.5077887"
     y="26.617771"
     width="26.634974"
     height="0.21559146"
     fill="#e6e6e6"
     id="rect47"
     style="stroke-width:0.109608" />
</svg>
