<?xml version="1.0" encoding="UTF-8" standalone="no"?>
<svg
   width="46"
   height="46"
   viewBox="0 0 46 46"
   fill="none"
   version="1.1"
   id="svg4"
   sodipodi:docname="innovation.svg"
   inkscape:version="1.3.2 (091e20e, 2023-11-25, custom)"
   xmlns:inkscape="http://www.inkscape.org/namespaces/inkscape"
   xmlns:sodipodi="http://sodipodi.sourceforge.net/DTD/sodipodi-0.dtd"
   xmlns="http://www.w3.org/2000/svg"
   xmlns:svg="http://www.w3.org/2000/svg">
  <defs
     id="defs4" />
  <sodipodi:namedview
     id="namedview4"
     pagecolor="#ffffff"
     bordercolor="#000000"
     borderopacity="0.25"
     inkscape:showpageshadow="2"
     inkscape:pageopacity="0.0"
     inkscape:pagecheckerboard="0"
     inkscape:deskcolor="#d1d1d1"
     showgrid="false"
     inkscape:zoom="7.598273"
     inkscape:cx="24.281834"
     inkscape:cy="27.308837"
     inkscape:window-width="1920"
     inkscape:window-height="974"
     inkscape:window-x="-11"
     inkscape:window-y="-11"
     inkscape:window-maximized="1"
     inkscape:current-layer="svg4" />
  <path
     d="M 43.926091,2.9377767 H 2.624966 A 1.4487708,1.5082592 0 0 0 1.1779406,4.4442182 V 30.643964 a 1.4487708,1.5082592 0 0 0 1.4470254,1.506442 h 41.301125 a 1.4487715,1.5082599 0 0 0 1.447025,-1.506442 V 4.4442182 A 1.4487715,1.5082599 0 0 0 43.926091,2.9377767 Z m 1.319476,27.7061873 a 1.319478,1.3736574 0 0 1 -1.319476,1.373658 H 2.624966 A 1.319478,1.3736574 0 0 1 1.3054869,30.643964 V 13.406226 A 9.9280059,10.335663 0 0 1 11.233494,3.0705603 h 32.692597 a 1.319478,1.3736574 0 0 1 1.319476,1.3736579 z"
     fill="#3f3d56"
     id="path1-9"
     style="stroke-width:0.0650697" />
  <path
     d="M 41.471378,25.227743 H 22.554186 a 0.74154153,0.77199019 0 0 1 -0.740685,-0.7711 v -6.395919 a 0.74154153,0.77199019 0 0 1 0.740685,-0.771097 h 18.917195 a 0.74154212,0.77199083 0 0 1 0.740684,0.771097 v 6.395919 a 0.74154212,0.77199083 0 0 1 -0.740687,0.7711 z"
     fill="#e6e6e6"
     id="path2-8"
     style="stroke-width:0.0650697" />
  <ellipse
     cx="11.974968"
     cy="6.5809188"
     rx="0.55112725"
     ry="0.58654374"
     fill="#3f3d56"
     id="ellipse2"
     style="stroke-width:0.0650697" />
  <ellipse
     cx="10.071072"
     cy="6.5809188"
     rx="0.55112725"
     ry="0.58654374"
     fill="#3f3d56"
     id="ellipse3"
     style="stroke-width:0.0650697" />
  <ellipse
     cx="8.1671762"
     cy="6.5809188"
     rx="0.55112725"
     ry="0.58654374"
     fill="#3f3d56"
     id="ellipse4"
     style="stroke-width:0.0650697" />
  <path
     d="m 29.982759,12.571887 h -7.70802 a 0.47958082,0.49927303 0 0 1 0,-0.998546 h 7.70802 a 0.47958082,0.49927303 0 0 1 0,0.998546 z"
     fill="#e6e6e6"
     id="path4-2"
     style="stroke-width:0.0650697" />
  <path
     d="M 35.998126,14.261735 H 22.274739 a 0.47958082,0.49927303 0 0 1 0,-0.998546 h 13.723387 a 0.47958082,0.49927303 0 1 1 0,0.998546 z"
     fill="#e6e6e6"
     id="path5-4"
     style="stroke-width:0.0650697" />
  <polygon
     points="162.313,563.077 172.402,563.076 177.201,524.161 162.311,524.162 "
     fill="#ffb6b6"
     id="polygon5"
     transform="matrix(0.06377371,0,0,0.06639234,-1.8260074,2.9377767)" />
  <path
     d="m 8.5026228,41.020548 1.9785742,-6.8e-5 V 40.99444 A 0.77015804,0.80178173 0 0 0 9.711081,40.192712 h -4.89e-5 l -0.3614098,-0.285442 -0.6743154,0.285485 -0.1727166,4e-6 z"
     fill="#2f2e41"
     id="path6-8"
     style="stroke-width:0.0650697" />
  <polygon
     points="103.992,563.077 114.081,563.076 118.88,524.161 103.99,524.162 "
     fill="#ffb6b6"
     id="polygon6"
     transform="matrix(0.06377371,0,0,0.06639234,-1.8260074,2.9377767)" />
  <path
     d="m 4.7832748,41.020548 1.9785741,-6.8e-5 V 40.99444 A 0.77015804,0.80178173 0 0 0 5.9917325,40.192709 h -4.58e-5 l -0.3614124,-0.285442 -0.6743129,0.285485 -0.1727171,4e-6 z"
     fill="#2f2e41"
     id="path7-2"
     style="stroke-width:0.0650697" />
  <path
     d="m 12.859268,23.167337 -2.192164,-2.140268 0.593745,-1.035462 2.162003,2.573936 a 0.62824688,0.65404352 0 1 1 -0.563584,0.601797 z"
     fill="#ffb6b6"
     id="path8"
     style="stroke-width:0.0650697" />
  <path
     d="m 4.1764474,26.283282 c 0,0 -0.2721464,2.549899 0.3175078,4.958138 l -0.2220884,1.164148 0.4942347,6.674429 H 5.9657641 L 6.8072078,28.077655 8.3779472,39.079997 H 9.6379686 L 9.4833218,33.035794 10.028688,27.22769 9.8008251,25.905517 Z"
     fill="#2f2e41"
     id="path9"
     style="stroke-width:0.0650697" />
  <path
     d="M 7.4915365,16.34903 H 4.813042 l -0.4504598,1.19229 0.1086922,9.426657 c 0,0 5.3068748,0 5.6697386,-0.377762 L 9.007064,22.482042 8.5988435,17.240584 Z"
     fill="#4690d6"
     id="path10"
     style="stroke-width:0.0650697" />
  <polygon
     points="212.541,263.081 200.45,283.707 186.937,278.728 182.67,263.081 157.594,242.581 154.931,209.739 169.156,214.717 199.028,246.723 209.696,253.835 "
     fill="#2f2e41"
     id="polygon10"
     transform="matrix(0.06377371,0,0,0.06639234,-1.8260074,2.9377767)" />
  <polygon
     points="189.785,355.897 173.779,294.02 167.378,214.362 146.041,201.56 142.188,203.016 147.103,224 153.865,298.998 163.111,355.897 "
     fill="#2f2e41"
     id="polygon11"
     transform="matrix(0.06377371,0,0,0.06639234,-1.8260074,2.9377767)" />
  <polygon
     points="109.057,363.72 91.103,364 86.431,346.349 96.966,301.132 82.741,214.362 104.078,201.56 107.931,203.016 115.458,227.164 127.549,306.822 "
     fill="#2f2e41"
     id="polygon12"
     transform="matrix(0.06377371,0,0,0.06639234,-1.8260074,2.9377767)" />
  <ellipse
     cx="6.0482674"
     cy="14.186691"
     fill="#ffb6b6"
     id="circle12"
     rx="1.6235503"
     ry="1.6902155"
     style="stroke-width:0.0650697" />
  <path
     d="m 5.1116348,15.023392 c 0,0 -0.077982,0.123134 0.072576,0.645605 L 4.4939526,15.092058 4.4184501,14.458486 c 0,0 -0.3513052,-1.306177 0.8531681,-1.933142 0,0 1.0539129,-0.57472 2.0576415,0.261236 0,0 0.4014898,0.05225 0.3513028,0.104494 -0.050183,0.05224 -0.3011177,0.208988 -0.05019,0.156741 0.2509274,-0.05225 0.4014899,-0.313483 0.4014899,-0.156741 0,0.156739 -0.4516776,0.522471 -0.4516776,0.522471 0,0 0.1756514,0.496349 -1.028822,-0.182865 v 0 a 1.3461354,1.4014094 0 0 1 -0.6928182,0.755324 l 0.038644,0.0393 v 0 l -0.2993658,0.668299 c 0,0 -0.3105358,-0.427788 -0.4861897,0.329795 z"
     fill="#2f2e41"
     id="path12"
     style="stroke-width:0.0650697" />
  <path
     d="m 5.239059,28.212567 5.45471,-12.804212 a 0.52740855,0.5490646 0 0 1 0.695137,-0.278994 l 3.994351,1.844243 a 0.52740855,0.5490646 0 0 1 0.267989,0.723681 L 10.196538,30.501497 A 0.52740855,0.5490646 0 0 1 9.5014008,30.780491 L 5.5070481,28.936248 A 0.52740855,0.5490646 0 0 1 5.239059,28.212567 Z"
     fill="#ffffff"
     id="path13"
     style="stroke-width:0.0650697" />
  <path
     d="m 5.239059,28.212567 5.45471,-12.804212 a 0.52740855,0.5490646 0 0 1 0.695137,-0.278994 l 3.994351,1.844243 a 0.52740855,0.5490646 0 0 1 0.267989,0.723681 L 10.196538,30.501497 A 0.52740855,0.5490646 0 0 1 9.5014008,30.780491 L 5.5070481,28.936248 A 0.52740855,0.5490646 0 0 1 5.239059,28.212567 Z M 15.566504,17.658156 a 0.434584,0.45242859 0 0 0 -0.22083,-0.59633 l -3.994351,-1.84424 a 0.434584,0.45242859 0 0 0 -0.572812,0.229896 L 5.3238017,28.251696 a 0.434584,0.45242859 0 0 0 0.2208299,0.59633 l 3.9943521,1.844243 A 0.43458464,0.45242924 0 0 0 10.111796,30.46237 Z"
     fill="#3f3d56"
     id="path14"
     style="stroke-width:0.0650697" />
  <ellipse
     cx="11.201578"
     cy="20.852131"
     fill="#cccccc"
     id="circle14"
     rx="2.0411055"
     ry="2.1249158"
     style="stroke-width:0.0650697" />
  <ellipse
     cx="10.208573"
     cy="23.183071"
     fill="#3f3d56"
     id="circle15"
     rx="2.0411055"
     ry="2.1249158"
     style="stroke-width:0.0650697" />
  <path
     d="m 8.3880698,27.456469 a 2.041107,2.1249176 0 1 1 1.6550052,-3.884907 c 1.030474,0.475783 2.160452,2.916056 1.038336,2.803932 C 9.7964079,26.2471 9.4185449,27.932252 8.3880698,27.456469 Z"
     fill="#4690d6"
     id="path15"
     style="stroke-width:0.0650697" />
  <path
     d="M 5.6427004,26.195876 4.0477569,22.05877 5.3232322,22.32434 6.3876775,25.871996 A 0.62824752,0.65404416 0 1 1 5.6427004,26.195878 Z"
     fill="#ffb6b6"
     id="path16"
     style="stroke-width:0.0650697" />
  <path
     d="m 3.0601901,18.17902 c -0.092844,1.066449 0.099452,2.002826 0.4443294,2.869599 l 0.044291,0.770965 0.3545624,0.525602 1.5118943,0.205502 L 5.6928625,21.639269 5.0714451,20.778482 5.0192001,18.628839 3.468746,17.152197 Z"
     fill="#2f2e41"
     id="path17"
     style="stroke-width:0.0650697" />
  <path
     d="m 14.48796,40.988919 a 0.07566559,0.07877252 0 0 1 -0.0759,0.07901 H -1.7411758 a 0.07589083,0.079007 0 0 1 0,-0.158014 H 14.412066 a 0.07566814,0.07877517 0 0 1 0.07589,0.07901 z"
     fill="#cccccc"
     id="path19"
     style="stroke-width:0.0650697" />
</svg>
