<?xml version="1.0" encoding="UTF-8" standalone="no"?>
<svg
   width="46"
   height="46"
   viewBox="0 0 46 46"
   fill="none"
   version="1.1"
   id="svg4"
   sodipodi:docname="tech.svg"
   inkscape:version="1.3.2 (091e20e, 2023-11-25, custom)"
   xmlns:inkscape="http://www.inkscape.org/namespaces/inkscape"
   xmlns:sodipodi="http://sodipodi.sourceforge.net/DTD/sodipodi-0.dtd"
   xmlns="http://www.w3.org/2000/svg"
   xmlns:svg="http://www.w3.org/2000/svg">
  <defs
     id="defs4" />
  <sodipodi:namedview
     id="namedview4"
     pagecolor="#ffffff"
     bordercolor="#000000"
     borderopacity="0.25"
     inkscape:showpageshadow="2"
     inkscape:pageopacity="0.0"
     inkscape:pagecheckerboard="0"
     inkscape:deskcolor="#d1d1d1"
     showgrid="false"
     inkscape:zoom="7.3704261"
     inkscape:cx="43.75595"
     inkscape:cy="28.695763"
     inkscape:window-width="1920"
     inkscape:window-height="974"
     inkscape:window-x="-11"
     inkscape:window-y="-11"
     inkscape:window-maximized="1"
     inkscape:current-layer="svg4" />
  <path
     d="m 35.849896,27.469504 c -0.69116,-1.105337 -3.260771,-1.995444 -6.171313,-2.137738 l -0.170173,-0.07822 c 1.175306,0.874507 1.735022,1.871908 1.60312,2.856681 -0.07597,0.56677 -0.374996,1.125429 -0.517192,1.690276 -0.07809,0.310428 0.02008,0.704245 0.773844,0.813295 0.509637,0.07374 1.071957,-0.02894 1.520572,-0.148208 2.419349,-0.643254 3.652311,-1.890762 2.961142,-2.996098 z"
     fill="#f2f2f2"
     id="path11"
     style="stroke-width:0.0815898" />
  <path
     d="m 8.3447029,35.722168 a 0.09533408,0.09829612 0 0 0 0.095634,0.09859 H 38.434569 a 0.09561813,0.098589 0 0 0 0,-0.197178 H 8.4403306 a 0.09533731,0.09829943 0 0 0 -0.095634,0.09858 z"
     fill="#cccccc"
     id="path12-8"
     style="stroke-width:0.0815898" />
  <path
     d="M 33.465704,31.094307 H 13.096722 a 3.0734266,3.1689181 0 0 1 0,-6.337835 h 20.368982 a 3.0734266,3.1689181 0 1 1 0,6.337835 z M 13.096722,24.922166 a 2.9127249,3.0032233 0 0 0 0,6.006446 h 20.368982 a 2.9127249,3.0032233 0 1 0 0,-6.006446 z"
     fill="#3f3d56"
     id="path13-4"
     style="stroke-width:0.0815898" />
  <path
     d="m 12.915925,28.940273 a 0.56311444,0.5806104 0 0 1 -0.562457,-0.579935 v -1.491254 a 0.56245716,0.57993269 0 0 1 1.12491,0 v 1.491254 a 0.56311444,0.5806104 0 0 1 -0.562453,0.579935 z"
     fill="#4690d6"
     id="path14-3"
     style="stroke-width:0.0815898" />
  <path
     d="m 14.522944,28.940273 a 0.56311444,0.5806104 0 0 1 -0.562456,-0.579935 v -1.491254 a 0.56245766,0.57993326 0 0 1 1.124912,0 v 1.491254 a 0.56311444,0.5806104 0 0 1 -0.562456,0.579935 z"
     fill="#4690d6"
     id="path15-8"
     style="stroke-width:0.0815898" />
  <path
     d="m 16.129965,28.940273 a 0.56311444,0.5806104 0 0 1 -0.562457,-0.579935 v -1.491254 a 0.56245736,0.57993296 0 0 1 1.124913,0 v 1.491254 a 0.56311444,0.5806104 0 0 1 -0.562456,0.579935 z"
     fill="#ff6584"
     id="path16-5"
     style="stroke-width:0.0815898" />
  <path
     d="m 17.736984,28.940273 a 0.56311444,0.5806104 0 0 1 -0.562457,-0.579935 v -1.491254 a 0.56245716,0.57993269 0 0 1 1.124913,0 v 1.491254 a 0.56311444,0.5806104 0 0 1 -0.562456,0.579935 z"
     fill="#4690d6"
     id="path17-8"
     style="stroke-width:0.0815898" />
  <polygon
     points="485.477,127.597 342.82,127.597 342.82,125.597 487.477,125.597 487.477,202.64 485.477,202.64 "
     fill="#3f3d56"
     id="polygon17"
     transform="matrix(0.08035101,0,0,0.08284753,-20.789502,8.051117)" />
  <ellipse
     cx="4.9654188"
     cy="18.057442"
     fill="#4690d6"
     id="circle17"
     rx="2.2321515"
     ry="2.3015044"
     style="stroke-width:0.0815898" />
  <path
     d="M 4.6609121,19.255268 A 0.24822278,0.25593509 0 0 1 4.4622932,19.152836 L 3.8533211,18.31564 a 0.24829122,0.25600566 0 1 1 0.3972766,-0.307192 l 0.3984136,0.547669 1.023251,-1.582549 a 0.24830103,0.25601576 0 0 1 0.4131919,0.284028 L 4.867529,19.14125 a 0.24839633,0.25611403 0 0 1 -0.1997118,0.11392 c -0.0022,4.3e-5 -0.00427,8.4e-5 -0.00634,8.4e-5 z"
     fill="#ffffff"
     id="path18"
     style="stroke-width:0.0815898" />
  <polygon
     points="604.084,125.597 748.741,125.597 748.741,127.597 606.084,127.597 606.084,202.64 604.084,202.64 "
     fill="#3f3d56"
     id="polygon18"
     transform="matrix(0.08035101,0,0,0.08284753,-20.789502,8.051117)" />
  <ellipse
     cx="41.155014"
     cy="18.057442"
     fill="#4690d6"
     id="circle18"
     rx="2.2321515"
     ry="2.3015044"
     style="stroke-width:0.0815898" />
  <path
     d="M 40.8505,19.255268 A 0.24822278,0.25593509 0 0 1 40.651885,19.152836 L 40.042921,18.31564 a 0.24829174,0.25600619 0 1 1 0.397278,-0.307192 l 0.398402,0.547669 1.02325,-1.582549 a 0.24830083,0.25601557 0 0 1 0.413193,0.284028 l -1.217925,1.883654 a 0.24839633,0.25611403 0 0 1 -0.199711,0.11392 c -0.0022,4.3e-5 -0.0043,8.4e-5 -0.0075,8.4e-5 z"
     fill="#ffffff"
     id="path19-3"
     style="stroke-width:0.0815898" />
  <rect
     x="22.984156"
     y="11.60471"
     width="0.16070203"
     height="13.23461"
     fill="#3f3d56"
     id="rect19"
     style="stroke-width:0.0815898" />
  <ellipse
     cx="23.285446"
     cy="10.352623"
     fill="#4690d6"
     id="circle19"
     rx="2.2321515"
     ry="2.3015044"
     style="stroke-width:0.0815898" />
  <path
     d="m 22.98094,11.550448 a 0.24822278,0.25593509 0 0 1 -0.198618,-0.102432 l -0.608961,-0.837194 a 0.24829131,0.25600574 0 1 1 0.397275,-0.307193 l 0.398403,0.54767 1.023249,-1.582547 a 0.24830417,0.25601901 0 0 1 0.413206,0.284023 l -1.217935,1.883657 a 0.24839633,0.25611403 0 0 1 -0.199714,0.113933 c -0.0022,4.2e-5 -0.0043,8.1e-5 -0.0065,8.1e-5 z"
     fill="#ffffff"
     id="path20"
     style="stroke-width:0.0815898" />
  <path
     d="m 20.56277,26.829681 q 2.603347,-0.141519 5.21127,-0.150649 2.59692,-0.0086 5.192137,0.115127 1.466715,0.06995 2.931124,0.182157 c 0.154757,0.01181 0.154023,-0.236768 0,-0.248542 q -2.599818,-0.198735 -5.206958,-0.265211 -2.596164,-0.06571 -5.193347,8.92e-4 -1.467829,0.03768 -2.934226,0.117671 c -0.154321,0.0083 -0.155278,0.256985 0,0.248543 z"
     fill="#3f3d56"
     id="path21"
     style="stroke-width:0.0815898" />
  <path
     d="m 20.56277,27.9067 q 2.603347,-0.141521 5.21127,-0.15065 2.59692,-0.0086 5.192137,0.115114 1.466715,0.06994 2.931124,0.182162 c 0.154757,0.01181 0.154023,-0.23677 0,-0.248542 q -2.599818,-0.198736 -5.206958,-0.265213 -2.596164,-0.06571 -5.193347,8.95e-4 -1.467829,0.03768 -2.934226,0.117658 c -0.154321,0.0083 -0.155278,0.256982 0,0.248541 z"
     fill="#3f3d56"
     id="path22"
     style="stroke-width:0.0815898" />
  <path
     d="m 20.56277,28.983718 q 2.603347,-0.141523 5.21127,-0.150651 2.59692,-0.0086 5.192137,0.115127 1.466715,0.06995 2.931124,0.18216 c 0.154757,0.01181 0.154023,-0.23677 0,-0.248543 q -2.599818,-0.198736 -5.206958,-0.265211 -2.596164,-0.06571 -5.193347,8.93e-4 -1.467829,0.03768 -2.934226,0.117658 c -0.154321,0.0083 -0.155278,0.256983 0,0.248543 z"
     fill="#3f3d56"
     id="path23"
     style="stroke-width:0.0815898" />
</svg>
